<svg width="32" height="40" viewBox="0 0 32 40" fill="none" xmlns="http://www.w3.org/2000/svg">
<path d="M15.4309 0.0101807C7.48374 0.289027 0.881645 6.48926 0.118918 14.4036C-0.0369076 15.9864 0.0533075 17.5201 0.332154 18.9881C0.332154 18.9881 0.356758 19.1604 0.438771 19.4884C0.684812 20.5874 1.05387 21.6536 1.51315 22.6541C3.11241 26.4432 6.81123 32.7828 15.111 39.6802C15.6195 40.1066 16.3658 40.1066 16.8825 39.6802C25.1823 32.791 28.8811 26.4514 30.4886 22.6459C30.956 21.6454 31.3169 20.5874 31.5629 19.4802C31.6367 19.1604 31.6695 18.9799 31.6695 18.9799C31.8582 17.9958 31.9566 16.987 31.9566 15.9536C31.9566 6.94853 24.5016 -0.309672 15.4309 0.0101807ZM15.9968 23.8925C11.7156 23.8925 8.24647 20.4234 8.24647 16.1423C8.24647 11.8611 11.7156 8.39197 15.9968 8.39197C20.2779 8.39197 23.747 11.8611 23.747 16.1423C23.747 20.4234 20.2779 23.8925 15.9968 23.8925Z" fill="#9587FF"/>
</svg>
