<svg width="40" height="40" viewBox="0 0 40 40" fill="none" xmlns="http://www.w3.org/2000/svg">
<path d="M38.9103 29.356L33.3282 23.7738C31.3346 21.7802 27.9454 22.5778 27.148 25.1694C26.5499 26.9637 24.5563 27.9605 22.762 27.5617C18.7748 26.5649 13.3921 21.3815 12.3953 17.1949C11.7972 15.4006 12.9933 13.407 14.7876 12.809C17.3793 12.0115 18.1767 8.62238 16.1831 6.62877L10.601 1.04665C9.00611 -0.348882 6.61378 -0.348882 5.21825 1.04665L1.43038 4.83451C-2.35749 8.82174 1.8291 19.3879 11.1991 28.7579C20.5691 38.1279 31.1352 42.5139 35.1225 38.5266L38.9103 34.7387C40.3059 33.1438 40.3059 30.7515 38.9103 29.356Z" fill="#9587FF"/>
</svg>
