<svg width="115" height="114" viewBox="0 0 115 114" fill="none" xmlns="http://www.w3.org/2000/svg">
<circle cx="57.2704" cy="57.0406" r="56.7568" fill="#9587FF"/>
<g clip-path="url(#clip0_28_73)">
<path d="M57.2677 22.9866C38.4923 22.9866 23.2148 38.2628 23.2148 57.0406C23.2148 75.8184 38.4923 91.0947 57.2677 91.0947C76.0467 91.0947 91.3217 75.8184 91.3217 57.0406C91.3217 38.2628 76.0467 22.9866 57.2677 22.9866ZM57.2677 86.5544C40.9943 86.5544 27.7551 73.3152 27.7551 57.0406C27.7551 40.766 40.9955 27.5269 57.2677 27.5269C73.5435 27.5269 86.7814 40.766 86.7814 57.0406C86.7814 73.3152 73.5447 86.5544 57.2677 86.5544Z" fill="#F4F7FF"/>
<path d="M74.1326 54.5753H59.5378V35.2775C59.5378 34.0234 58.5211 33.0067 57.2683 33.0067C56.0167 33.0067 55 34.0246 55 35.2775V59.1143H74.1326C75.3855 59.1143 76.4022 58.0989 76.4009 56.8448C76.4009 55.592 75.383 54.5753 74.1326 54.5753Z" fill="#F4F7FF"/>
</g>
<defs>
<clipPath id="clip0_28_73">
<rect width="68.1081" height="68.1081" fill="white" transform="translate(23.2168 22.9866)"/>
</clipPath>
</defs>
</svg>
