<svg width="114" height="114" viewBox="0 0 114 114" fill="none" xmlns="http://www.w3.org/2000/svg">
<circle cx="56.7568" cy="57.0406" r="56.7568" fill="#9587FF"/>
<g clip-path="url(#clip0_28_59)">
<path d="M53.709 83.819V67.7876L56.7468 68.2854L59.7846 67.7876V83.819H53.709Z" fill="#F4F7FF"/>
<path d="M35.903 29.062C35.903 29.062 25.411 23.816 25.4493 34.091C25.4493 34.091 25.3472 43.1661 31.2697 50.6074C31.2697 50.6074 35.8902 57.1681 43.8932 59.6698C43.8932 59.6698 41.6722 56.2491 40.5618 53.6453C40.5618 53.6453 33.2864 49.5098 30.6698 40.9835C30.6698 40.9835 26.0492 29.279 35.8902 33.44V29.062H35.903Z" fill="#F4F7FF"/>
<path d="M56.7472 68.2854C62.0187 68.2854 66.3967 63.5245 66.3967 63.5245C71.8214 58.0488 74.7826 48.7567 74.7826 48.7567C78.6501 38.6349 77.2333 22.9864 77.2333 22.9864H56.7472H36.2484C36.2484 22.9864 34.8444 38.6349 38.7119 48.7567C38.7119 48.7567 41.6731 58.0616 47.0977 63.5245C47.0977 63.5245 51.4758 68.2854 56.7472 68.2854Z" fill="#F4F7FF"/>
<path d="M77.6523 29.062C77.6523 29.062 88.1442 23.816 88.1059 34.091C88.1059 34.091 88.208 43.1661 82.2856 50.6074C82.2856 50.6074 77.6651 57.1681 69.6621 59.6698C69.6621 59.6698 71.883 56.2491 72.9935 53.6453C72.9935 53.6453 80.2689 49.5098 82.8855 40.9835C82.8855 40.9835 87.506 29.279 77.6651 33.44V29.062H77.6523Z" fill="#F4F7FF"/>
<path d="M74.9861 85.7847H38.4941V91.0945H74.9861V85.7847Z" fill="#F4F7FF"/>
<path d="M63.0008 83.8191H50.4922V85.7847H63.0008V83.8191Z" fill="#F4F7FF"/>
</g>
<defs>
<clipPath id="clip0_28_59">
<rect width="68.1081" height="68.1081" fill="white" transform="translate(22.7031 22.9865)"/>
</clipPath>
</defs>
</svg>
