<svg width="115" height="114" viewBox="0 0 115 114" fill="none" xmlns="http://www.w3.org/2000/svg">
<circle cx="57.5126" cy="57.0404" r="56.7568" fill="#9587FF"/>
<g clip-path="url(#clip0_28_69)">
<path d="M51.8378 32.0674V37.7427H60.3507V43.4179H66.0259V37.7427H74.5388V32.0674H51.8378ZM51.8378 49.0932C51.0716 49.0932 50.359 49.4022 49.82 49.9131L44.9979 54.7684H37.6471C36.0865 54.7684 34.8095 56.0455 34.8095 57.6061V74.6344C34.8095 76.1949 36.0865 77.472 37.6471 77.472H42.4693L50.2747 82.6645C50.7293 82.9761 51.2708 83.1473 51.8378 83.1473H66.0285C66.6517 83.1473 67.2468 82.9506 67.7295 82.5828L79.08 74.0699C79.7901 73.531 80.2166 72.6779 80.2166 71.7968V51.9308C80.2166 50.3703 78.9395 49.0932 77.379 49.0932H51.8378ZM85.8918 51.9308V68.9591H91.5671V51.9308H85.8918ZM60.3507 54.771V63.2839H66.0259L57.513 77.4746V68.9617H51.8378L60.3507 54.771ZM23.459 57.6086V71.7993H29.1342V57.6086H23.459Z" fill="#F4F7FF"/>
</g>
<defs>
<clipPath id="clip0_28_69">
<rect width="68.1081" height="68.1081" fill="white" transform="translate(23.459 22.9863)"/>
</clipPath>
</defs>
</svg>
