<svg width="30" height="40" viewBox="0 0 30 40" fill="none" xmlns="http://www.w3.org/2000/svg">
<path d="M0.806198 3.37252C0.548672 3.18169 0.347346 2.95721 0.213712 2.7119C0.0800776 2.46658 0.0167523 2.20524 0.0273548 1.94279C0.0379573 1.68034 0.122279 1.42192 0.275504 1.18229C0.428729 0.942659 0.647857 0.726508 0.920378 0.546178C1.1929 0.365847 1.51348 0.224869 1.8638 0.131293C2.21413 0.0377173 2.58735 -0.0066248 2.96215 0.000799535C3.33695 0.00822387 3.70599 0.0672689 4.0482 0.174563C4.39041 0.281858 4.6991 0.435301 4.95662 0.626131L29.2197 18.6156C29.7208 18.9867 30 19.478 30 19.9888C30 20.4995 29.7208 20.9908 29.2197 21.362L4.95662 39.3534C4.70079 39.5484 4.39218 39.7059 4.04871 39.8167C3.70524 39.9274 3.33376 39.9893 2.95584 39.9987C2.57792 40.0081 2.2011 39.9649 1.84727 39.8714C1.49344 39.778 1.16964 39.6363 0.894696 39.4545C0.61975 39.2727 0.399132 39.0544 0.245657 38.8124C0.0921826 38.5704 0.00891043 38.3094 0.000676752 38.0447C-0.00755692 37.78 0.0594114 37.5167 0.197694 37.2703C0.335977 37.0238 0.542817 36.799 0.806198 36.609L23.2196 19.9888L0.806198 3.37252Z" fill="#9688FF"/>
</svg>
