<svg width="30" height="40" viewBox="0 0 30 40" fill="none" xmlns="http://www.w3.org/2000/svg">
<path d="M29.1938 3.37252C29.4513 3.18169 29.6527 2.95721 29.7863 2.7119C29.9199 2.46658 29.9832 2.20524 29.9726 1.94279C29.962 1.68034 29.8777 1.42192 29.7245 1.18229C29.5713 0.942659 29.3521 0.726508 29.0796 0.546178C28.8071 0.365847 28.4865 0.224869 28.1362 0.131293C27.7859 0.0377173 27.4127 -0.0066248 27.0379 0.000799535C26.6631 0.00822387 26.294 0.0672689 25.9518 0.174563C25.6096 0.281858 25.3009 0.435301 25.0434 0.626131L0.780256 18.6156C0.27919 18.9867 -1.90735e-06 19.478 -1.90735e-06 19.9888C-1.90735e-06 20.4995 0.27919 20.9908 0.780256 21.362L25.0434 39.3534C25.2992 39.5484 25.6078 39.7059 25.9513 39.8167C26.2948 39.9274 26.6662 39.9893 27.0442 39.9987C27.4221 40.0081 27.7989 39.9649 28.1527 39.8714C28.5066 39.778 28.8304 39.6363 29.1053 39.4545C29.3802 39.2727 29.6009 39.0544 29.7543 38.8124C29.9078 38.5704 29.9911 38.3094 29.9993 38.0447C30.0076 37.78 29.9406 37.5167 29.8023 37.2703C29.664 37.0238 29.4572 36.799 29.1938 36.609L6.78038 19.9888L29.1938 3.37252Z" fill="#9688FF"/>
</svg>
