<svg width="54" height="54" viewBox="0 0 54 54" fill="none" xmlns="http://www.w3.org/2000/svg">
<path d="M40.375 2L40.3906 1.00012L40.3828 1H40.375H13.625H13.6172L13.6094 1.00012L13.625 2C13.6094 1.00012 13.609 1.00013 13.6086 1.00013L13.6077 1.00015L13.6059 1.00018L13.6017 1.00027L13.5915 1.00053L13.5636 1.00152C13.5418 1.00244 13.5135 1.00394 13.4793 1.00637C13.411 1.01123 13.3186 1.01985 13.2068 1.03519C12.984 1.06577 12.6791 1.12372 12.3304 1.23431C11.6486 1.45061 10.7702 1.87842 10.0318 2.72269C10.0252 2.72899 10.0192 2.73486 10.0137 2.74021L9.87182 2.81989L9.74046 3.00951C9.73511 3.01723 9.72972 3.02502 9.72428 3.03286C9.5114 3.34001 9.23191 3.74328 9.03156 4.28276C8.70771 5.15287 7.50165 8.22614 6.3704 11.0972C5.80611 12.5294 5.2623 13.9065 4.85954 14.9256L4.37632 16.1479L4.24234 16.4865L4.20721 16.5753L4.19822 16.598L4.19595 16.6037L4.19538 16.6052L4.19524 16.6055C4.19521 16.6056 4.19519 16.6056 5.125 16.9737L4.19519 16.6056L4.125 16.783V16.9737V34.0789C4.125 35.9398 5.79959 37.2105 7.5625 37.2105H8.9375C10.7004 37.2105 12.375 35.9398 12.375 34.0789V31.9474H41.625V34.0789C41.625 35.9398 43.2996 37.2105 45.0625 37.2105H46.4375C48.2004 37.2105 49.875 35.9398 49.875 34.0789V16.9737V16.7834L49.8051 16.6064L48.875 16.9737C49.8051 16.6064 49.8051 16.6064 49.8051 16.6063L49.8049 16.6059L49.8044 16.6045L49.8021 16.5987L49.7931 16.5759L49.7579 16.4869L49.6238 16.1473L49.14 14.9225C48.7367 13.9014 48.1917 12.5222 47.6253 11.0896C46.4982 8.23904 45.2839 5.1712 44.9325 4.29663C44.7316 3.76035 44.4562 3.33607 44.2041 3.00237L44.1973 2.99339L44.1903 2.98456C44.1828 2.97506 44.1754 2.9653 44.1631 2.94903C44.1532 2.93582 44.1331 2.90904 44.1122 2.8826C44.0768 2.83791 44.0302 2.78283 43.9692 2.72389C43.2306 1.87882 42.3517 1.45072 41.6696 1.23431C41.3209 1.12372 41.016 1.06577 40.7932 1.03519C40.6814 1.01985 40.589 1.01123 40.5207 1.00637C40.4865 1.00394 40.4582 1.00244 40.4364 1.00152L40.4085 1.00053L40.3983 1.00027L40.3941 1.00018L40.3923 1.00015L40.3914 1.00013C40.391 1.00013 40.3906 1.00012 40.375 2ZM2 37.8684H1V38.8684V44.1053V45.1053H2H22.875V52V53H23.875H30.125H31.125V52V45.1053H52H53V44.1053V38.8684V37.8684H52H2ZM43 22.4737C43 23.5567 41.9281 24.6842 40.1875 24.6842C38.4724 24.6842 37.375 23.5519 37.375 22.4737C37.375 21.4121 38.4525 20.2632 40.1875 20.2632C41.9224 20.2632 43 21.4122 43 22.4737ZM13.8125 24.6842C12.0776 24.6842 11 23.5352 11 22.4737C11 21.4122 12.0776 20.2632 13.8125 20.2632C15.5474 20.2632 16.625 21.4122 16.625 22.4737C16.625 23.5567 15.5531 24.6842 13.8125 24.6842ZM10.595 14.1579L13.9615 5.63158H40.0072L43.3738 14.1579H10.595Z" fill="#242230" stroke="#FFF61D" stroke-width="2"/>
</svg>
