<svg width="54" height="54" viewBox="0 0 54 54" fill="none" xmlns="http://www.w3.org/2000/svg">
<path d="M13.9646 12.5141C14.8523 14.9823 17.6946 17.1999 21.5308 16.498C21.7875 16.4788 22.1485 16.4386 22.5418 16.3949C22.5729 16.3914 22.6043 16.3879 22.6358 16.3844C23.1125 16.3315 23.6581 16.2716 24.2135 16.2237C25.3793 16.1232 26.4062 16.0951 26.9233 16.2133C27.3869 16.3217 27.6091 16.3867 27.7611 16.4511C27.8818 16.5022 27.9784 16.561 28.1576 16.7108C28.2523 16.7901 28.3725 16.8983 28.5271 17.0375C28.972 17.4379 29.7015 18.0947 30.9297 19.0554L47.4678 32.3471C48.207 32.9765 49.0872 33.1786 49.9354 33.0227C50.759 32.8714 51.4932 32.3972 52.0553 31.7797L52.056 31.7789C52.6905 31.0805 53.0026 30.1463 53 29.2534C52.9974 28.3581 52.6746 27.3996 51.9022 26.7348L51.8838 26.719L51.8647 26.704L30.9086 10.3669C30.9083 10.3667 30.9081 10.3665 30.9078 10.3663C29.934 9.60408 29.6533 8.58744 29.2005 6.9481C29.1874 6.9004 29.174 6.85217 29.1606 6.8034L29.1561 6.78729L29.1511 6.77134C28.6316 5.11107 27.441 3.67415 25.9821 2.65913C24.5203 1.64217 22.7208 1 20.9025 1C19.3562 1 17.8326 1.64344 16.5943 2.48957C15.3543 3.33685 14.29 4.46225 13.693 5.57653L12.9041 7.04881H14.5744H20.4257L22.1092 8.86132L20.3634 11.1756H14.9056H13.4832L13.9646 12.5141ZM39.6931 33.0948C39.2922 32.8388 38.8318 32.7094 38.3798 32.6541L32.1768 22.1623C32.012 21.8714 31.739 21.4805 31.4146 21.1468C31.2496 20.9772 31.0473 20.7972 30.8153 20.6539C30.5918 20.5158 30.2669 20.3659 29.8775 20.3659H11.8458C11.4563 20.3659 11.1315 20.5158 10.908 20.6539C10.6761 20.7972 10.4737 20.9771 10.3088 21.1466C9.98199 21.4825 9.70747 21.8763 9.54283 22.1669L3.5078 32.6371C3.00425 32.6798 2.47978 32.8077 2.03018 33.0948C1.38614 33.506 1 34.1805 1 35.0338V44.4589C1 45.3122 1.38614 45.9867 2.03018 46.3979C2.60896 46.7675 3.31181 46.8732 3.93437 46.8732H5.19148V49.1715C5.19148 50.1549 5.50233 51.1053 6.12742 51.825C6.76446 52.5585 7.68559 53 8.77028 53H9.73747C11.9369 53 13.4787 51.2284 13.4787 49.1715V46.8732H28.2446V49.1715C28.2446 51.2269 29.786 53 31.9848 53H32.952C34.037 53 34.9584 52.5587 35.5956 51.8251C36.221 51.1054 36.5318 50.1549 36.5318 49.1715V46.8732H37.7889C38.4115 46.8732 39.1143 46.7675 39.6931 46.3979C40.3371 45.9867 40.7233 45.3122 40.7233 44.4589V35.0338C40.7233 34.1805 40.3371 33.506 39.6931 33.0948ZM7.29975 39.6891C7.10745 39.693 6.9168 39.6594 6.73923 39.5909C6.56169 39.5223 6.40166 39.4206 6.26788 39.2929C6.13415 39.1653 6.02939 39.0144 5.95838 38.8498C5.8874 38.6852 5.85121 38.5094 5.85121 38.3326C5.85121 38.1557 5.8874 37.98 5.95838 37.8154C6.02939 37.6508 6.13415 37.4999 6.26789 37.3722C6.40167 37.2445 6.5617 37.1428 6.73922 37.0743C6.9168 37.0058 7.10745 36.9722 7.29975 36.9761C7.6788 36.9838 8.03455 37.136 8.2922 37.3924C8.54901 37.6479 8.68817 37.9859 8.68817 38.3326C8.68817 38.6792 8.54901 39.0172 8.2922 39.2728C8.03455 39.5291 7.6788 39.6814 7.29975 39.6891ZM30.8647 32.6195H10.8586L14.0676 26.076C14.1348 25.9476 14.2809 25.7426 14.4533 25.5787C14.5348 25.5013 14.6007 25.4537 14.6434 25.4293H27.0797C27.1223 25.4537 27.188 25.5012 27.2694 25.5785C27.4414 25.7421 27.5878 25.9472 27.6562 26.077L30.8647 32.6195ZM14.6709 25.4155C14.6709 25.4156 14.6697 25.416 14.6676 25.4168C14.6698 25.4158 14.6709 25.4154 14.6709 25.4155ZM27.0522 25.4154C27.0521 25.4154 27.0532 25.4157 27.0555 25.4167C27.0533 25.416 27.0522 25.4155 27.0522 25.4154ZM34.4033 39.6889C34.0188 39.6889 33.6552 39.5398 33.391 39.2824C33.1278 39.0258 32.9848 38.6835 32.9848 38.3321C32.9848 37.9807 33.1278 37.6383 33.391 37.3818C33.6552 37.1243 34.0188 36.9753 34.4033 36.9753C34.7877 36.9753 35.1513 37.1243 35.4155 37.3818C35.6787 37.6383 35.8217 37.9807 35.8217 38.3321C35.8217 38.6835 35.6787 39.0258 35.4155 39.2824C35.1513 39.5398 34.7877 39.6889 34.4033 39.6889Z" fill="#242230" stroke="#FFF61D" stroke-width="2"/>
</svg>
