<svg width="54" height="54" viewBox="0 0 54 54" fill="none" xmlns="http://www.w3.org/2000/svg">
<path d="M45.8776 35.0674L45.9012 34.6956C45.9129 34.5099 45.9346 34.32 45.9528 34.1608C45.957 34.1243 45.961 34.0895 45.9646 34.0566C45.9859 33.8648 45.9992 33.7136 45.9992 33.5748C45.9992 26.816 40.7994 21.4186 34.4994 21.4186C28.1994 21.4186 22.9996 26.816 22.9996 33.5748C22.9996 35.3094 23.3478 36.9668 23.9714 38.4496L24.555 39.8373H23.0496H10.4999V41.4685C10.4999 43.4191 8.97478 45.0997 6.99991 45.0997H4.49995C2.52508 45.0997 1 43.4191 1 41.4685V20.4186V20.2582L1.05019 20.1058L6.2496 4.31989C6.24966 4.31972 6.24972 4.31954 6.24978 4.31936C6.8744 2.41358 8.63608 1 10.7498 1H38.2493C40.3629 1 42.1244 2.4133 42.7492 4.3188L42.7491 4.31839L41.7993 4.63123L42.7495 4.31989L45.8776 35.0674ZM45.8776 35.0674L46.103 35.364M45.8776 35.0674L46.103 35.364M46.103 35.364L46.203 35.4955L47.9992 37.8585M46.103 35.364L47.9992 37.8585M47.9992 37.8585V34.8904M47.9992 37.8585V34.8904M47.9992 34.8904V33.5748V34.8904ZM32.8144 33.9172L28.5675 29.537L27.5607 28.4987L26.9447 29.8072C25.4105 33.0667 26.1316 37.0506 28.5881 39.7243L28.5927 39.7293C29.7183 40.9378 31.1611 41.7799 32.7468 42.1437C34.1079 42.4559 35.5178 42.4026 36.8466 41.9954L46.6666 52.3059C47.0618 52.7389 47.6007 53 48.1866 53C48.7718 53 49.3101 52.7396 49.7052 52.3075L52.2675 49.6365C52.7412 49.2082 52.9763 48.6284 52.9983 48.073C53.0196 47.5357 52.8398 46.9285 52.3644 46.5056L42.5373 36.1625C43.4004 33.2187 42.6882 29.9027 40.4241 27.5445C37.8613 24.8207 34.013 24.2845 30.9147 25.7804L29.6806 26.3763L30.6245 27.3698L34.8224 31.7881L32.8144 33.9172ZM10.7498 24.0499C12.2249 24.0499 13.4998 25.3162 13.4998 26.9967C13.4998 28.6772 12.2249 29.9436 10.7498 29.9436C9.27477 29.9436 7.99991 28.6772 7.99991 26.9967C7.99991 25.3162 9.27477 24.0499 10.7498 24.0499ZM11.4821 6.94685H37.5171L40.6336 16.7874H8.36556L11.4821 6.94685Z" fill="#242230" stroke="#FFF61D" stroke-width="2"/>
</svg>
