<svg width="54" height="54" viewBox="0 0 54 54" fill="none" xmlns="http://www.w3.org/2000/svg">
<path d="M49.985 6.87082L49.3332 5.74277L48.412 6.66399L39.5 15.576L38.424 14.5L47.336 5.58797L48.2357 4.68824L47.1489 4.02666C46.3811 3.55932 45.6567 3.15467 44.9765 2.81456C44.2986 2.47561 43.5966 2.16272 42.8706 1.8757C42.1092 1.5747 41.3286 1.35281 40.5295 1.21075C39.7301 1.06862 38.8649 1 37.9375 1V0.999922L37.925 1.00008C36.5427 1.01736 35.2127 1.19899 33.9379 1.54824C32.6648 1.89703 31.4669 2.40385 30.3469 3.06886C29.2365 3.72815 28.2206 4.50957 27.3006 5.41217C26.3738 6.32156 25.5787 7.34424 24.916 8.47772C24.2532 9.61146 23.7473 10.8154 23.3988 12.0873C23.0487 13.3653 22.875 14.6913 22.875 16.0625C22.875 16.4809 22.8924 16.8923 22.9276 17.2966C22.9475 17.5261 22.9732 17.7555 23.0045 17.9847L3.68547 37.3036L3.68543 37.3036L3.67822 37.311C2.81034 38.1969 2.14289 39.1999 1.68505 40.3171C1.228 41.4323 1 42.6029 1 43.8213C1 45.0788 1.24692 46.2751 1.74475 47.3999C2.23079 48.498 2.88308 49.4694 3.70216 50.3067C4.52942 51.1524 5.50267 51.812 6.61279 52.2852C7.73462 52.7633 8.92648 53 10.1787 53C11.4114 53 12.5904 52.7727 13.7073 52.315C14.8265 51.8563 15.8242 51.1867 16.6964 50.3145L36.0173 30.9936C36.2564 31.0257 36.4933 31.052 36.7278 31.0724C37.1309 31.1075 37.5341 31.125 37.9375 31.125V31.1251L37.95 31.1249C39.3323 31.1076 40.6623 30.926 41.9371 30.5768C43.2102 30.228 44.4081 29.7212 45.5281 29.0561C46.6385 28.3969 47.6544 27.6154 48.5744 26.7128C49.5012 25.8034 50.2963 24.7808 50.959 23.6473C51.6218 22.5135 52.1277 21.3096 52.4762 20.0377C52.8263 18.7597 53 17.4337 53 16.0625V16.0443L52.9993 16.0262C52.9656 15.0995 52.8895 14.2457 52.7684 13.4674C52.6427 12.6594 52.427 11.8771 52.1213 11.1219C51.8333 10.4104 51.5117 9.70804 51.1566 9.01483C50.8063 8.33075 50.4156 7.61602 49.985 6.87082ZM40.2061 22.0929L47.7567 14.5633C47.8353 15.0524 47.8747 15.5502 47.875 16.0573C47.8594 17.4611 47.5911 18.7512 47.0781 19.9383C46.5574 21.1435 45.8468 22.1931 44.9452 23.0947C44.0437 23.9962 42.9941 24.7068 41.7889 25.2275C40.6025 25.7402 39.3222 26 37.9375 26C37.4252 26 36.9318 25.9561 36.4562 25.8696C35.9384 25.7755 35.4202 25.6656 34.9016 25.5399L34.3563 25.4077L33.9593 25.8042L13.0609 46.6782L13.0605 46.6786C12.6804 47.0587 12.2437 47.3522 11.7438 47.5627C11.2539 47.769 10.7388 47.8735 10.1903 47.875C9.61499 47.8602 9.09563 47.7467 8.6225 47.5421C8.13063 47.3294 7.69437 47.0386 7.30885 46.6663C6.93641 46.3067 6.64641 45.8831 6.43726 45.3864C6.22955 44.893 6.125 44.3741 6.125 43.8213C6.125 43.2684 6.22955 42.7495 6.43726 42.2562C6.64775 41.7563 6.94133 41.3196 7.32136 40.9395L7.32178 40.9391L28.1958 20.0407L28.5923 19.6437L28.4601 19.0984C28.3344 18.5798 28.2245 18.0616 28.1304 17.5438C28.0442 17.0698 28.0003 16.5781 28 16.0677C28.0156 14.6639 28.2839 13.3738 28.7969 12.1867C29.3176 10.9815 30.0282 9.93188 30.9298 9.03035C31.8313 8.12882 32.8809 7.41823 34.0861 6.89746C35.2725 6.38481 36.5528 6.125 37.9375 6.125C38.4463 6.125 38.9459 6.16445 39.4367 6.2433L31.9071 13.7939L31.202 14.501L31.9081 15.2071L38.7929 22.0919L39.499 22.798L40.2061 22.0929Z" fill="#242230" stroke="#FFF61D" stroke-width="2"/>
</svg>
