<svg width="55" height="55" viewBox="0 0 55 55" fill="none" xmlns="http://www.w3.org/2000/svg">
<path d="M26.5279 2.00328L25.8183 1.94567L25.5316 2.59731L24.1577 5.72034C23.6899 5.76292 23.2238 5.82162 22.7602 5.89633L20.6589 3.19501L20.2224 2.63384L19.549 2.86179L16.8855 3.76335L16.2084 3.99252L16.2061 4.70728L16.1948 8.15051C15.3771 8.60154 14.5854 9.11357 13.8241 9.68485L10.6067 8.24266L9.95841 7.95207L9.47062 8.4686L7.54344 10.5094L7.0513 11.0305L7.38676 11.664L9.03164 14.77C8.64022 15.3635 8.28068 15.9773 7.95454 16.6088L4.4223 16.7048L3.7092 16.7241L3.49541 17.4047L2.65627 20.076L2.44177 20.7588L3.01893 21.1821L5.8714 23.2739C5.78897 23.9132 5.73809 24.5548 5.7166 25.1964L2.54961 26.7939L1.91046 27.1164L2.00964 27.8253L2.39769 30.5991L2.49653 31.3056L3.19676 31.4421L6.67266 32.1195C6.83015 32.6111 7.00651 33.0964 7.20133 33.5745L4.89945 36.4195L4.44891 36.9763L4.83112 37.5821L6.32695 39.9529L6.70664 40.5546L7.39963 40.3932L10.9831 39.5581C11.1324 39.7229 11.2845 39.8852 11.4391 40.0451L11.4405 40.0465C11.918 40.5382 12.4194 41.006 12.943 41.4483L12.2478 45.0166L12.1111 45.7183L12.7308 46.0747L15.1655 47.4748L15.7818 47.8293L16.319 47.3636L19.0472 44.9986C19.6315 45.212 20.2254 45.3981 20.8271 45.5563L21.7171 49.0351L21.8939 49.7262L22.6048 49.784L25.4075 50.0119L26.1169 50.0696L26.4037 49.4181L27.8469 46.1402C28.6613 46.067 29.4729 45.9453 30.277 45.7745L32.5609 48.4088L33.0264 48.9458L33.6866 48.6827L36.2969 47.6425L36.9604 47.3781L36.9256 46.6648L36.8491 45.0995L36.8279 44.6645L37.4328 45.1214C37.2392 47.8164 38.3474 50.5863 40.6773 52.346L41.28 51.5481L40.6773 52.3461C43.2773 54.3097 46.6222 54.4628 49.3384 53.1331L50.7999 52.4176L49.5014 51.4369L44.7054 47.8146C43.6422 47.0116 43.4239 45.5228 44.1784 44.5331L44.1785 44.533C44.9204 43.5594 46.4081 43.3889 47.4736 44.1931C47.4736 44.1931 47.4737 44.1932 47.4738 44.1932L52.2698 47.8157L53.5585 48.7891L53.8555 47.2016C54.4102 44.2364 53.3627 41.0682 50.7621 39.1038C48.433 37.3439 45.4795 36.9967 42.9335 37.8975L42.6737 37.7013L43.2435 36.8117C43.5767 36.2915 43.8856 35.7564 44.1695 35.2082L47.6726 35.1123L48.3855 35.0928L48.5993 34.4124L49.4384 31.7411L49.6529 31.0583L49.0758 30.635L46.2464 28.5597C46.3299 27.9125 46.3821 27.2617 46.4028 26.6095L49.5462 25.0195L50.1842 24.6967L50.0852 23.9886L49.6972 21.2148L49.5984 20.5084L48.8983 20.3718L45.4228 19.6939C45.153 18.8641 44.8296 18.0526 44.4546 17.2644L46.5211 14.4148L46.9416 13.835L46.528 13.2503L44.9094 10.9618L44.4986 10.3811L43.8152 10.5786L40.4051 11.5644C39.97 11.1325 39.5157 10.7203 39.0437 10.3289L39.6915 6.99803L39.8279 6.29645L39.2083 5.9402L36.7733 4.5402L36.1571 4.18587L35.6199 4.65149L33.0475 6.88124C32.3942 6.64299 31.7319 6.44054 31.0639 6.27148L30.2219 2.98L30.0451 2.28883L29.334 2.2311L26.5279 2.00328ZM24.449 39.9178C21.3043 39.5649 18.2809 38.1519 15.9036 35.7043C10.4802 30.12 10.6346 21.2394 16.2447 15.8392L16.2447 15.8392C18.9648 13.2208 22.4614 11.8933 25.9636 11.8556L25.9529 10.8557L25.9636 11.8556C29.692 11.8156 33.4182 13.2367 36.2144 16.1159C40.7643 20.8011 41.3873 27.8525 38.1528 33.1917L37.6977 33.943L28.5896 27.0639C28.7734 24.3778 27.639 21.64 25.3117 19.8818L25.3116 19.8817C23.9193 18.8302 22.3065 18.2912 20.6896 18.2264L20.6785 18.2154L20.2629 18.2202C19.0097 18.2344 17.7757 18.5405 16.6505 19.0911L15.1889 19.8064L16.4873 20.7873L21.287 24.4132L21.287 24.4132C22.3494 25.2157 22.5832 26.6809 21.8435 27.6521L21.8434 27.6523C21.0875 28.6452 19.5816 28.8367 18.5153 28.0315L13.7191 24.409L12.431 23.4361L12.1335 25.0227C11.5772 27.9904 12.6298 31.1569 15.2302 33.121L15.2304 33.1211C17.5594 34.8798 20.5372 35.2015 23.0907 34.2889L29.9492 39.469L29.5132 39.5788C27.8568 39.9957 26.1379 40.1075 24.449 39.9178L24.449 39.9178Z" fill="#242230" stroke="#FFF61D" stroke-width="2"/>
</svg>
