<?xml version="1.0" encoding="utf-8"?><svg viewBox="0 0 800 800" xmlns="http://www.w3.org/2000/svg" xmlns:xlink="http://www.w3.org/1999/xlink"><style>:root>svg{display:none}:root>svg:target{display:block}</style><svg viewBox="0 0 22 22" id="cloze" xmlns="http://www.w3.org/2000/svg"><path d="M15.244 11.767L8.39 18.672a1.12 1.12 0 11-1.59-1.579l6.064-6.11-6.11-6.064a1.12 1.12 0 011.58-1.59l6.904 6.854a1.117 1.117 0 01.006 1.584"/></svg><svg viewBox="0 0 490 490" id="cross" xmlns="http://www.w3.org/2000/svg"><path d="M456.851 0L245 212.564 33.149 0 .708 32.337l211.961 212.667L.708 457.678 33.149 490 245 277.443 456.851 490l32.441-32.322-211.961-212.674L489.292 32.337z"/></svg><svg viewBox="0 0 32 40" id="location" xmlns="http://www.w3.org/2000/svg"><path d="M15.43.01C7.485.29.883 6.49.12 14.404a16.052 16.052 0 00.32 5.084 15.992 15.992 0 001.074 3.166c1.6 3.79 5.298 10.129 13.598 17.026a1.387 1.387 0 001.771 0c8.3-6.889 12-13.229 13.607-17.034.467-1 .828-2.059 1.074-3.166.074-.32.107-.5.107-.5.188-.984.287-1.993.287-3.026C31.957 6.949 24.502-.31 15.43.01zm.567 23.883a7.75 7.75 0 01-7.75-7.75 7.75 7.75 0 017.75-7.751 7.75 7.75 0 017.75 7.75 7.75 7.75 0 01-7.75 7.75z"/></svg><svg viewBox="0 0 40 40" id="mail" xmlns="http://www.w3.org/2000/svg"><path d="M19.922 0C8.937 0 0 8.937 0 19.922 0 30.907 8.937 40 19.922 40 30.907 40 40 30.907 40 19.922S30.907 0 19.922 0zm8.36 25.781a4.678 4.678 0 01-3.83-2c-1.075 1.217-2.628 2-4.374 2a5.866 5.866 0 01-5.86-5.86c0-3.23 2.63-5.858 5.86-5.858 1.324 0 2.533.458 3.516 1.201v-.03a1.171 1.171 0 112.343 0v5.86a2.347 2.347 0 002.344 2.343 2.347 2.347 0 002.344-2.343c0-7.843-5.19-11.719-10.547-11.719-5.816 0-10.547 4.731-10.547 10.547 0 5.816 4.731 10.547 10.547 10.547 2.344 0 4.56-.751 6.411-2.172 1.236-.944 2.652.919 1.428 1.858a12.765 12.765 0 01-7.839 2.657c-7.108 0-12.89-5.782-12.89-12.89 0-7.108 5.782-12.89 12.89-12.89 6.477 0 12.89 4.775 12.89 14.062a4.692 4.692 0 01-4.687 4.687z"/></svg><svg viewBox="0 0 14 24" id="next" xmlns="http://www.w3.org/2000/svg"><path d="M2 22l10-10L2 2"/></svg><svg viewBox="0 0 40 40" id="phone" xmlns="http://www.w3.org/2000/svg"><path d="M38.91 29.356l-5.582-5.582c-1.993-1.994-5.383-1.196-6.18 1.395-.598 1.795-2.592 2.791-4.386 2.393-3.987-.997-9.37-6.18-10.367-10.367-.598-1.794.598-3.788 2.393-4.386 2.591-.797 3.389-4.187 1.395-6.18l-5.582-5.582C9.006-.35 6.614-.35 5.218 1.047L1.43 4.835c-3.787 3.987.4 14.553 9.77 23.923 9.37 9.37 19.935 13.756 23.922 9.769l3.788-3.788c1.396-1.595 1.396-3.987 0-5.383z"/></svg><svg viewBox="0 0 14 24" id="prev" xmlns="http://www.w3.org/2000/svg"><path d="M12.001 22l-10-10 10-10"/></svg><svg viewBox="0 0 40 40" id="whatsapp" xmlns="http://www.w3.org/2000/svg"><g clip-path="url(#ha)"><path d="M20.005 0h-.01C8.967 0 0 8.97 0 20c0 4.375 1.41 8.43 3.808 11.723l-2.493 7.43 7.688-2.458A19.827 19.827 0 0020.005 40C31.032 40 40 31.027 40 20S31.032 0 20.005 0z"/><path d="M31.642 28.242c-.482 1.363-2.397 2.493-3.925 2.823-1.045.223-2.41.4-7.005-1.505-5.877-2.435-9.662-8.407-9.957-8.795-.283-.387-2.375-3.163-2.375-6.033 0-2.87 1.457-4.267 2.045-4.867.482-.493 1.28-.718 2.045-.718.247 0 .47.013.67.023.587.025.882.06 1.27.988.482 1.162 1.657 4.032 1.797 4.327.143.295.285.695.085 1.083-.187.4-.352.577-.647.917-.295.34-.575.6-.87.965-.27.317-.575.658-.235 1.245.34.575 1.515 2.492 3.245 4.032 2.232 1.988 4.042 2.623 4.69 2.893.482.2 1.057.152 1.41-.223.447-.482 1-1.282 1.562-2.07.4-.565.905-.635 1.435-.435.54.188 3.398 1.6 3.985 1.893.588.295.975.435 1.118.683.14.247.14 1.41-.343 2.774z"/></g><defs><clipPath id="ha"><path d="M0 0h40v40H0z"/></clipPath></defs></svg></svg>